<?xml version="1.0" encoding="UTF-8"?>
<svg width="16" height="16" baseProfile="tiny" version="1.2" viewBox="0 0 16 16" xmlns="http://www.w3.org/2000/svg">
<polyline points="8.1942 15.282 8.1553 15.282 8.136 15.262 8.1165 15.241 8.0984 15.223 8.0777 15.204 8.0583 15.184 8.0598 15.146 8.0388 15.126 8.0195 15.107 8.0195 15.068 8.0205 15.029 8 15.01 7.9807 14.99 7.9814 14.952 7.9612 14.932 7.9418 14.913 7.9418 14.874 7.943 14.835 7.9223 14.814 7.9045 14.796 7.8835 14.777 7.8642 14.757 7.8658 14.718 7.8447 14.699 7.8253 14.68 7.8058 14.66 7.7865 14.641 7.767 14.621 7.7476 14.602 7.749 14.563 7.7282 14.544 7.7088 14.524 7.7102 14.485 7.6893 14.464 7.6716 14.447 7.6505 14.426 7.6117 14.417 7.6028 14.408 7.5728 14.385 7.5567 14.369 7.534 14.348 7.5165 14.33 7.4951 14.309 7.4773 14.291 7.4563 14.271 7.4175 14.272 7.3981 14.252 7.3786 14.231 7.3398 14.229 7.3246 14.214 7.301 14.193 7.2621 14.194 7.2233 14.194 7.204 14.175 7.1845 14.155 7.1651 14.136 7.1456 14.115 7.1068 14.116 7.0875 14.097 7.068 14.078 7.0486 14.058 7.0291 14.037 6.9903 14.039 6.9709 14.019 6.9515 14 6.9321 13.981 6.9126 13.959 6.8949 13.942 6.8738 13.921 6.835 13.922 6.8156 13.903 6.7961 13.882 6.7784 13.864 6.7573 13.843 6.7184 13.845 6.6991 13.825 6.7003 13.786 6.6796 13.765 6.6618 13.748 6.6408 13.726 6.6236 13.709 6.6019 13.689 6.5826 13.67 6.5848 13.631 6.5631 13.61 6.5448 13.592 6.5243 13.57 6.5075 13.553 6.4854 13.534 6.4661 13.515 6.4671 13.476 6.4466 13.456 6.4273 13.437 6.4287 13.398 6.4078 13.379 6.3884 13.359 6.39 13.32 6.3907 13.282 6.3905 13.243 6.3689 13.223 6.3496 13.204 6.3508 13.165 6.3301 13.146 6.3108 13.126 6.3122 13.087 6.3135 13.048 6.2913 13.027 6.274 13.01 6.2738 12.971 6.2524 12.951 6.2331 12.932 6.2349 12.893 6.2351 12.854 6.2274 12.816 6.2136 12.804 6.1943 12.777 6.1957 12.738 6.1957 12.699 6.1748 12.68 6.1554 12.66 6.1554 12.621 6.1359 12.6 6.1143 12.621 6.0971 12.639 6.0772 12.66 6.0583 12.679 6.0388 12.699 6.0194 12.718 5.9974 12.738 5.9999 12.777 5.9806 12.796 5.9611 12.816 5.9417 12.835 5.9223 12.854 5.9029 12.874 5.8834 12.893 5.8834 12.932 5.8641 12.951 5.8446 12.971 5.8252 12.99 5.8051 13.01 5.8057 13.048 5.7864 13.068 5.766 13.087 5.7669 13.126 5.7476 13.146 5.7281 13.165 5.7281 13.204 5.7087 13.223 5.6867 13.243 5.6699 13.26 5.6493 13.282 5.6455 13.32 5.6311 13.335 5.6104 13.359 5.6116 13.398 5.5922 13.417 5.5717 13.437 5.5727 13.476 5.5534 13.495 5.5339 13.515 5.5146 13.534 5.4951 13.553 5.4757 13.573 5.4543 13.592 5.4562 13.631 5.4369 13.65 5.4174 13.67 5.3981 13.689 5.3592 13.687 5.3397 13.709 5.3204 13.728 5.2816 13.727 5.2561 13.748 5.2427 13.761 5.2039 13.766 5.1844 13.786 5.165 13.806 5.1262 13.804 5.0874 13.804 5.0679 13.825 5.0485 13.845 5.0097 13.843 4.9709 13.844 4.932 13.842 4.8932 13.843 4.8544 13.842 4.8155 13.843 4.7767 13.843 4.7379 13.842 4.699 13.843 4.6602 13.843 4.6214 13.845 4.5825 13.845 4.5437 13.845 4.5049 13.845 4.4855 13.825 4.466 13.804 4.4272 13.804 4.3883 13.805 4.3495 13.804 4.3107 13.805 4.2718 13.805 4.233 13.804 4.1942 13.805 4.1553 13.804 4.1165 13.804 4.0777 13.804 4.0388 13.804 4.0193 13.825 4 13.845 3.9612 13.845 3.9223 13.845 3.8835 13.844 3.8592 13.864 3.8447 13.879 3.8058 13.882 3.767 13.882 3.7475 13.903 3.7282 13.922 3.6893 13.921 3.6698 13.942 3.6505 13.961 3.6117 13.961 3.5728 13.96 3.5533 13.981 3.534 14 3.4951 13.998 3.4757 14.019 3.4563 14.039 3.4368 14.058 3.4175 14.078 3.3786 14.078 3.3398 14.077 3.301 14.076 3.2621 14.076 3.2233 14.078 3.204 14.058 3.2048 14.019 3.1845 14 3.1651 13.981 3.1651 13.942 3.1651 13.903 3.1651 13.864 3.1651 13.825 3.1651 13.786 3.1651 13.748 3.1651 13.709 3.1651 13.67 3.1651 13.631 3.1666 13.592 3.1651 13.553 3.166 13.515 3.1662 13.476 3.1663 13.437 3.1661 13.398 3.166 13.359 3.1664 13.32 3.1456 13.301 3.1263 13.282 3.1305 13.243 3.1274 13.204 3.1274 13.165 3.1068 13.146 3.0875 13.126 3.0875 13.087 3.0891 13.048 3.0888 13.01 3.068 12.99 3.0486 12.971 3.0486 12.932 3.0291 12.912 3.0098 12.893 3.0098 12.854 2.9903 12.835 2.9709 12.816 2.9709 12.777 2.9515 12.757 2.9321 12.738 2.9321 12.699 2.9321 12.66 2.933 12.621 2.933 12.582 2.9334 12.544 2.9126 12.524 2.8933 12.505 2.8933 12.466 2.8933 12.427 2.8933 12.388 2.8942 12.35 2.8941 12.311 2.8942 12.272 2.8933 12.233 2.8933 12.194 2.9126 12.175 2.9332 12.155 2.9334 12.116 2.9321 12.078 2.9515 12.058 2.9709 12.039 2.9903 12.02 3.0107 12 3.0098 11.961 3.0291 11.942 3.0486 11.922 3.068 11.903 3.0875 11.884 3.1068 11.864 3.1263 11.845 3.1456 11.825 3.1651 11.806 3.1845 11.786 3.204 11.767 3.2233 11.748 3.2428 11.728 3.2621 11.709 3.2816 11.689 3.301 11.67 3.3205 11.65 3.3398 11.631 3.3593 11.612 3.3786 11.592 3.3991 11.573 3.4175 11.554 3.438 11.534 3.4563 11.516 3.4769 11.495 3.4758 11.456 3.4951 11.437 3.5146 11.418 3.534 11.398 3.5535 11.379 3.5728 11.359 3.5923 11.34 3.6117 11.32 3.6336 11.301 3.6505 11.284 3.6713 11.262 3.67 11.223 3.6893 11.204 3.7088 11.184 3.7282 11.165 3.767 11.167 3.7871 11.146 3.8058 11.127 3.8265 11.107 3.8253 11.068 3.8447 11.049 3.8654 11.029 3.8642 10.99 3.8835 10.971 3.9223 10.973 3.9438 10.952 3.9612 10.934 3.9814 10.913 4 10.894 4.0213 10.874 4.0195 10.835 4.0388 10.816 4.0583 10.796 4.0777 10.777 4.0972 10.757 4.0777 10.738 4.0388 10.735 4.0193 10.757 4 10.777 3.9612 10.774 3.9223 10.772 3.8835 10.772 3.8615 10.796 3.8447 10.813 3.8058 10.813 3.7863 10.835 3.767 10.854 3.7282 10.852 3.7087 10.874 3.6893 10.893 3.6505 10.893 3.6117 10.891 3.5922 10.913 3.5728 10.932 3.534 10.932 3.4951 10.93 3.4563 10.93 3.4368 10.952 3.4175 10.971 3.3786 10.971 3.3398 10.97 3.301 10.968 3.2621 10.968 3.2233 10.968 3.1845 10.969 3.1456 10.968 3.1068 10.97 3.068 10.968 3.0291 10.968 2.9903 10.97 2.9515 10.969 2.9126 10.971 2.8738 10.968 2.835 10.968 2.7961 10.971 2.7573 10.971 2.7184 10.971 2.6796 10.971 2.6603 10.952 2.6408 10.931 2.6019 10.93 2.5631 10.93 2.5243 10.932 2.4854 10.932 2.4661 10.913 2.4466 10.892 2.4078 10.893 2.3884 10.874 2.3689 10.853 2.3301 10.854 2.2913 10.854 2.2719 10.835 2.2524 10.816 2.2136 10.816 2.1943 10.796 2.1748 10.776 2.1359 10.777 2.0971 10.777 2.0777 10.757 2.0583 10.735 2.0414 10.718 2.0194 10.697 2.0018 10.68 1.9806 10.659 1.9417 10.66 1.9224 10.641 1.9239 10.602 1.9029 10.581 1.8641 10.582 1.8447 10.563 1.8252 10.544 1.8059 10.524 1.8078 10.485 1.7864 10.466 1.7671 10.447 1.7476 10.427 1.7282 10.408 1.7087 10.388 1.6894 10.369 1.6699 10.349 1.6506 10.33 1.6515 10.291 1.6311 10.272 1.6117 10.252 1.5922 10.233 1.5729 10.214 1.5735 10.175 1.5534 10.153 1.5362 10.136 1.5146 10.116 1.4952 10.097 1.4757 10.078 1.4564 10.058 1.4575 10.019 1.4369 9.9989 1.3981 9.9999 1.3787 9.9806 1.3798 9.9417 1.3592 9.9208 1.3414 9.9029 1.3204 9.8802 1.3043 9.8641 1.2816 9.8446 1.2622 9.8252 1.2427 9.8045 1.2039 9.8057 1.1845 9.7864 1.165 9.7669 1.1457 9.7476 1.1262 9.7281 1.1069 9.7087 1.0874 9.6892 1.068 9.6699 1.0485 9.6489 1.0097 9.6504 0.9904 9.6311 0.9709 9.6116 0.9515 9.5922 0.932 9.5719 0.8932 9.5727 0.8739 9.5534 0.8544 9.5322 0.8155 9.5339 0.7962 9.5146 0.7767 9.4951 0.7379 9.4951 0.7185 9.4757 0.699 9.4562 0.6797 9.4369 0.6602 9.416 0.6214 9.4174 0.602 9.3981 0.5825 9.3773 0.5437 9.3786 0.5243 9.3592 0.5049 9.3397 0.4855 9.3204 0.466 9.3009 0.4467 9.2816 0.4467 9.2427 0.466 9.2234 0.4855 9.2039 0.5049 9.1845 0.5276 9.165 0.5437 9.1489 0.5825 9.1472 0.602 9.1262 0.6214 9.1069 0.6409 9.0874 0.6602 9.068 0.6797 9.0485 0.699 9.0292 0.721 9.0097 0.7379 8.9929 0.7574 8.9709 0.7767 8.9515 0.7962 8.932 0.8155 8.9127 0.8367 8.8932 0.8544 8.8755 0.8753 8.8544 0.8932 8.8365 0.9144 8.8155 0.9127 8.7767 0.932 8.7574 0.9515 8.7379 0.9709 8.7185 0.9904 8.699 1.0097 8.6797 1.0292 8.6602 1.0485 8.6409 1.068 8.6214 1.0874 8.602 1.1075 8.5825 1.1069 8.5437 1.1262 8.5243 1.1467 8.5049 1.1457 8.466 1.165 8.4467 1.187 8.4272 1.2039 8.4103 1.224 8.3883 1.2234 8.3495 1.2427 8.3302 1.2639 8.3107 1.2641 8.2718 1.2622 8.233 1.2816 8.2137 1.3028 8.1942 1.3023 8.1553 1.301 8.1165 1.3204 8.0972 1.3411 8.0777 1.3399 8.0388 1.3399 8 1.3592 7.9807 1.3799 7.9612 1.3787 7.9223 1.3981 7.903 1.4183 7.8835 1.4176 7.8447 1.4369 7.8253 1.4577 7.8058 1.4572 7.767 1.4564 7.7282 1.4564 7.6893 1.4564 7.6505 1.4573 7.6117 1.4369 7.5922 1.4176 7.5728 1.4188 7.534 1.3981 7.513 1.3802 7.4951 1.3592 7.4757 1.3399 7.4563 1.3417 7.4175 1.3204 7.3948 1.3043 7.3786 1.3033 7.3398 1.2816 7.3203 1.2622 7.301 1.2633 7.2621 1.264 7.2233 1.2427 7.2038 1.2234 7.1845 1.2241 7.1456 1.2039 7.1261 1.1845 7.1068 1.1845 7.068 1.1858 7.0291 1.165 7.0096 1.1457 6.9903 1.1457 6.9515 1.1457 6.9126 1.147 6.8738 1.1473 6.835 1.1262 6.8155 1.1069 6.7961 1.1069 6.7573 1.1069 6.7184 1.1094 6.6796 1.1082 6.6408 1.1086 6.6019 1.1088 6.5631 1.1087 6.5243 1.0874 6.5048 1.068 6.4854 1.068 6.4466 1.068 6.4078 1.0694 6.3689 1.0693 6.3301 1.0485 6.3106 1.0292 6.2913 1.0299 6.2524 1.0097 6.2329 0.9904 6.2136 0.9906 6.1748 0.9709 6.1553 0.9515 6.1359 0.9534 6.0971 0.932 6.0776 0.9127 6.0583 0.9127 6.0194 0.9134 5.9806 0.8932 5.9611 0.8739 5.9417 0.8747 5.9029 0.8544 5.8834 0.835 5.8641 0.8155 5.8446 0.7962 5.8252 0.7767 5.8057 0.7574 5.7864 0.7582 5.7476 0.7379 5.7256 0.721 5.7087 0.7202 5.6699 0.699 5.6504 0.6797 5.6311 0.6602 5.6116 0.6409 5.5922 0.6214 5.5727 0.602 5.5534 0.6038 5.5146 0.5825 5.4951 0.5632 5.4757 0.5825 5.4564 0.6026 5.4369 0.602 5.3981 0.6214 5.3787 0.6602 5.3787 0.699 5.3795 0.7185 5.3592 0.7379 5.3399 0.7767 5.3399 0.8155 5.3399 0.8544 5.3409 0.8932 5.3408 0.9127 5.3204 0.932 5.301 0.9709 5.301 1.0097 5.302 1.0485 5.3021 1.0874 5.3023 1.1069 5.2816 1.1262 5.2622 1.165 5.2635 1.2039 5.2633 1.2234 5.2427 1.2427 5.2234 1.2816 5.2234 1.3204 5.2242 1.3592 5.2243 1.3787 5.2039 1.3981 5.1845 1.4369 5.1853 1.4564 5.165 1.4757 5.1457 1.5146 5.1468 1.5341 5.1262 1.5534 5.1069 1.5922 5.1085 1.6311 5.1083 1.6506 5.0874 1.6699 5.068 1.6894 5.0485 1.7087 5.0292 1.7476 5.0292 1.7671 5.0097 1.7864 4.9904 1.8252 4.9912 1.8447 4.9709 1.8641 4.9515 1.9029 4.9537 1.9224 4.932 1.9417 4.9127 1.9806 4.9137 2.0001 4.8932 2.0194 4.8739 2.0389 4.8544 2.0583 4.835 2.0777 4.8155 2.0971 4.7962 2.1359 4.7973 2.1596 4.7767 2.1748 4.7615 2.2136 4.7588 2.2356 4.7379 2.2524 4.721 2.2913 4.7202 2.3108 4.699 2.3301 4.6797 2.3496 4.6602 2.3689 4.6409 2.4078 4.6422 2.4466 4.6424 2.4661 4.6214 2.4854 4.602 2.5243 4.602 2.5631 4.6034 2.5826 4.5825 2.6019 4.5632 2.6408 4.5632 2.6796 4.5632 2.7184 4.5664 2.7573 4.5653 2.7961 4.5632 2.835 4.5647 2.8738 4.5645 2.9126 4.5632 2.9515 4.5632 2.9903 4.5643 3.0291 4.5632 3.068 4.5647 3.1068 4.5648 3.1456 4.5649 3.1845 4.5632 3.2233 4.5632 3.2621 4.5632 3.301 4.5632 3.3398 4.5632 3.3591 4.5825 3.3786 4.6033 3.4175 4.602 3.4563 4.602 3.4951 4.602 3.5145 4.6214 3.534 4.6419 3.5728 4.6409 3.5922 4.6602 3.6117 4.6805 3.6332 4.6602 3.6117 4.6407 3.5923 4.6214 3.5728 4.6019 3.5535 4.5825 3.5554 4.5437 3.534 4.5231 3.5158 4.5049 3.4951 4.4854 3.4758 4.466 3.4781 4.4272 3.4563 4.4077 3.437 4.3883 3.4384 4.3495 3.4175 4.3285 3.3996 4.3107 3.3786 4.2912 3.3593 4.2718 3.3615 4.233 3.3398 4.2135 3.3205 4.1942 3.301 4.1747 3.2816 4.1553 3.2828 4.1165 3.2621 4.097 3.2428 4.0777 3.2233 4.0582 3.204 4.0388 3.2048 4 3.1845 3.9805 3.1651 3.9612 3.1456 3.9417 3.1263 3.9223 3.1282 3.8835 3.1068 3.864 3.0875 3.8447 3.0875 3.8058 3.068 3.7847 3.0503 3.767 3.0291 3.7475 3.0098 3.7282 2.9903 3.7087 2.9709 3.6893 2.9709 3.6505 2.9515 3.631 2.9321 3.6117 2.9342 3.5728 2.9338 3.534 2.9331 3.4951 2.9126 3.4757 2.8933 3.4563 2.8933 3.4175 2.8933 3.3786 2.8941 3.3398 2.894 3.301 2.8942 3.2621 2.8738 3.2426 2.8544 3.2233 2.8544 3.1845 2.8544 3.1456 2.8544 3.1068 2.8544 3.068 2.8738 3.0486 2.8941 3.0291 2.8938 2.9903 2.8942 2.9515 2.8939 2.9126 2.8948 2.8738 2.8933 2.835 2.8933 2.7961 2.8933 2.7573 2.9126 2.7379 2.9331 2.7184 2.9333 2.6796 2.9332 2.6408 2.9334 2.6019 2.9334 2.5631 2.9332 2.5243 2.9329 2.4854 2.9332 2.4466 2.933 2.4078 2.9332 2.3689 2.9331 2.3301 2.9331 2.2913 2.9126 2.2718 2.8933 2.2524 2.8933 2.2136 2.8938 2.1748 2.8738 2.1553 2.8544 2.1359 2.8544 2.0971 2.8544 2.0583 2.8544 2.0194 2.8738 2.0001 2.8933 1.9806 2.9126 1.9612 2.9515 1.962 2.9903 1.9625 3.0291 1.9612 3.0485 1.9806 3.068 2.0001 3.1068 2.0001 3.1261 2.0194 3.1456 2.0389 3.1845 2.0389 3.2038 2.0583 3.2233 2.0777 3.2621 2.0777 3.2815 2.0971 3.301 2.1166 3.3398 2.1166 3.3591 2.1359 3.3786 2.1554 3.398 2.1748 3.4175 2.1949 3.4563 2.1946 3.4951 2.195 3.534 2.1958 3.5728 2.1943 3.6117 2.1943 3.631 2.2136 3.6505 2.2336 3.6893 2.2336 3.7282 2.2337 3.767 2.2331 3.8058 2.2331 3.8447 2.2337 3.8835 2.2337 3.9223 2.2337 3.9612 2.2337 4 2.2337 4.0388 2.2336 4.0583 2.2136 4.0777 2.1943 4.1165 2.1943 4.1553 2.1959 4.1942 2.1947 4.2137 2.1748 4.233 2.1554 4.2525 2.1359 4.2525 2.0971 4.2718 2.0777 4.2913 2.0583 4.3107 2.0389 4.3495 2.0394 4.3883 2.0389 4.4077 2.0583 4.4272 2.0787 4.466 2.0777 4.4854 2.0971 4.5049 2.1166 4.5242 2.1359 4.5231 2.1748 4.5437 2.1952 4.5825 2.1943 4.6019 2.2136 4.6214 2.2331 4.6407 2.2524 4.6602 2.273 4.699 2.2719 4.7184 2.2913 4.7379 2.3114 4.7767 2.3108 4.796 2.3301 4.8155 2.3505 4.8544 2.3543 4.869 2.3689 4.8932 2.3891 4.932 2.3884 4.9514 2.4078 4.9709 2.4288 5.0097 2.4273 5.0291 2.4466 5.0485 2.4677 5.0874 2.4661 5.1067 2.4854 5.1262 2.5054 5.165 2.5049 5.2039 2.5049 5.2232 2.5243 5.2427 2.5446 5.2816 2.5449 5.3204 2.5438 5.3592 2.5438 5.3981 2.5438 5.4174 2.5631 5.4369 2.5835 5.4757 2.5826 5.5146 2.5826 5.5339 2.6019 5.5534 2.623 5.5922 2.6214 5.6311 2.6214 5.6504 2.6408 5.6699 2.6612 5.7087 2.6603 5.7476 2.6603 5.7669 2.6796 5.7864 2.7005 5.8252 2.6991 5.8641 2.6991 5.8834 2.7184 5.9029 2.7398 5.9417 2.7393 5.9806 2.7379 6.0194 2.7379 6.0388 2.7573 6.0583 2.7768 6.0971 2.7793 6.1166 2.7573 6.1359 2.7379 6.1554 2.7184 6.1748 2.6991 6.1952 2.6796 6.1943 2.6408 6.2136 2.6214 6.2331 2.6019 6.2524 2.5826 6.2719 2.5631 6.2913 2.5438 6.3108 2.5243 6.3301 2.5049 6.3496 2.4854 6.3689 2.4661 6.3884 2.4466 6.4078 2.4273 6.4283 2.4078 6.4273 2.3689 6.4466 2.3496 6.4854 2.3507 6.5066 2.3301 6.5243 2.3124 6.5438 2.2913 6.5631 2.2719 6.5826 2.2524 6.6019 2.2331 6.6246 2.2136 6.6408 2.1975 6.6603 2.1748 6.6796 2.1554 6.6991 2.1359 6.7184 2.1166 6.7573 2.1175 6.7768 2.0971 6.7961 2.0777 6.8171 2.0583 6.835 2.0404 6.8544 2.0194 6.8738 2.0001 6.8942 1.9806 6.8933 1.9417 6.9126 1.9224 6.9321 1.9029 6.9321 1.8641 6.9515 1.8447 6.9728 1.8252 6.9903 1.8077 7.0107 1.7864 7.0098 1.7476 7.0291 1.7282 7.0486 1.7087 7.068 1.6894 7.0883 1.6699 7.1068 1.6514 7.1272 1.6311 7.1263 1.5922 7.1456 1.5729 7.1672 1.5534 7.1845 1.5362 7.205 1.5146 7.204 1.4757 7.2233 1.4564 7.2428 1.4369 7.2621 1.4176 7.2816 1.3981 7.301 1.3787 7.322 1.3592 7.3205 1.3204 7.3398 1.301 7.3604 1.2816 7.3593 1.2427 7.3786 1.2234 7.3981 1.2039 7.4175 1.1845 7.437 1.165 7.4563 1.1457 7.4758 1.1262 7.4951 1.1069 7.5164 1.0874 7.5146 1.0485 7.534 1.0292 7.5553 1.0097 7.5535 0.9709 7.5728 0.9515 7.5923 0.932 7.6117 0.9127 7.6505 0.9138 7.6714 0.8932 7.67 0.8544 7.6804 0.8155 7.6893 0.8066 7.7088 0.7767 7.7282 0.7574 7.7476 0.7379 7.767 0.7185 7.8058 0.7202 7.8447 0.7185 7.864 0.7379 7.8617 0.7767 7.863 0.8155 7.8639 0.8544 7.863 0.8932 7.864 0.932 7.864 0.9709 7.864 1.0097 7.864 1.0485 7.864 1.0874 7.8631 1.1262 7.8635 1.165 7.8835 1.1845 7.9028 1.2039 7.9028 1.2427 7.9017 1.2816 7.9223 1.301 7.9612 1.301 7.9805 1.3204 8 1.3399 8.0388 1.3399 8.0582 1.3592 8.0777 1.3787 8.1165 1.3787 8.1358 1.3981 8.1553 1.4176 8.1747 1.4369 8.1942 1.4573 8.2126 1.4757 8.233 1.4969 8.2718 1.4952 8.2912 1.5146 8.3107 1.5341 8.33 1.5534 8.3495 1.5729 8.3689 1.5922 8.3681 1.6311 8.3883 1.6506 8.4077 1.6699 8.4272 1.6894 8.4465 1.7087 8.4458 1.7476 8.466 1.7671 8.4854 1.7864 8.5049 1.8059 8.5242 1.8252 8.5233 1.8641 8.5437 1.8836 8.563 1.9029 8.5616 1.9417 8.5615 1.9806 8.5825 2.0001 8.6019 2.0194 8.6019 2.0583 8.6214 2.0777 8.6407 2.0971 8.6396 2.1359 8.6402 2.1748 8.6602 2.1943 8.6795 2.2136 8.6779 2.2524 8.6788 2.2913 8.699 2.3108 8.7184 2.3301 8.7184 2.3689 8.7184 2.4078 8.7184 2.4466 8.7169 2.4854 8.717 2.5243 8.7165 2.5631 8.7167 2.6019 8.7379 2.6214 8.7572 2.6408 8.7572 2.6796 8.7551 2.7184 8.7555 2.7573 8.7555 2.7961 8.7553 2.835 8.7558 2.8738 8.7556 2.9126 8.7556 2.9515 8.7558 2.9903 8.7561 3.0291 8.7555 3.068 8.7554 3.1068 8.7555 3.1456 8.7767 3.1651 8.7962 3.1456 8.8155 3.1263 8.835 3.1068 8.8544 3.0875 8.8739 3.068 8.8932 3.0486 8.9127 3.0291 8.9127 2.9903 8.932 2.9709 8.9525 2.9515 8.962 2.9126 8.9709 2.9037 8.9913 2.8738 8.9904 2.835 9.0097 2.8156 9.0292 2.7961 9.0292 2.7573 9.0485 2.7379 9.068 2.7184 9.0874 2.6991 9.1078 2.6796 9.1084 2.6408 9.1069 2.6019 9.1262 2.5826 9.1462 2.5631 9.1457 2.5243 9.1457 2.4854 9.165 2.4661 9.1853 2.4466 9.1845 2.4078 9.1845 2.3689 9.2039 2.3496 9.2242 2.3301 9.2234 2.2913 9.2234 2.2524 9.2427 2.2331 9.2635 2.2136 9.2622 2.1748 9.2816 2.1554 9.3017 2.1359 9.301 2.0971 9.301 2.0583 9.3204 2.0389 9.341 2.0194 9.3399 1.9806 9.3399 1.9417 9.3592 1.9224 9.3787 1.9029 9.3981 1.8836 9.4176 1.8641 9.4369 1.8447 9.4757 1.8447 9.5146 1.8461 9.5341 1.8252 9.5534 1.8059 9.5922 1.8059 9.6311 1.8059 9.6699 1.8059 9.7087 1.8059 9.7476 1.8059 9.7864 1.8059 9.8252 1.8084 9.8641 1.8059 9.9029 1.8059 9.9417 1.8059 9.9806 1.8068 10.019 1.8074 10.058 1.8072 10.078 1.7864 10.097 1.7671 10.136 1.7679 10.155 1.7476 10.175 1.7282 10.214 1.7293 10.233 1.7087 10.252 1.6894 10.291 1.6894 10.311 1.6699 10.33 1.6506 10.369 1.6506 10.408 1.6514 10.427 1.6311 10.447 1.6117 10.485 1.6133 10.505 1.5922 10.524 1.5729 10.563 1.5738 10.583 1.5534 10.602 1.5341 10.621 1.5146 10.641 1.4952 10.68 1.4962 10.699 1.4757 10.718 1.4564 10.738 1.4369 10.757 1.4176 10.777 1.3981 10.796 1.3787 10.835 1.3795 10.854 1.3592 10.874 1.3399 10.913 1.3412 10.952 1.3399 10.971 1.3592 10.97 1.3981 10.97 1.4369 10.99 1.4564 11.01 1.4757 11.01 1.5146 11.008 1.5534 11.009 1.5922 11.009 1.6311 11.029 1.6506 11.048 1.6699 11.048 1.7087 11.047 1.7476 11.068 1.7671 11.087 1.7864 11.086 1.8252 11.086 1.8641 11.107 1.8836 11.126 1.9029 11.126 1.9417 11.124 1.9806 11.146 2.0001 11.165 2.0194 11.165 2.0583 11.184 2.0777 11.204 2.0971 11.203 2.1359 11.223 2.1554 11.243 2.1748 11.262 2.1943 11.282 2.2136 11.282 2.2524 11.301 2.2719 11.32 2.2913 11.319 2.3301 11.34 2.3496 11.359 2.3689 11.379 2.3884 11.398 2.4078 11.397 2.4466 11.418 2.4674 11.436 2.4854 11.456 2.5054 11.475 2.5243 11.495 2.5438 11.514 2.5631 11.534 2.5826 11.553 2.6019 11.552 2.6408 11.573 2.6603 11.592 2.6796 11.591 2.7184 11.592 2.7573 11.592 2.7961 11.592 2.835 11.573 2.8543 11.553 2.8738 11.553 2.9126 11.534 2.932 11.514 2.9515 11.495 2.9708 11.474 2.9903 11.456 3.0078 11.436 3.0291 11.418 3.0473 11.397 3.068 11.398 3.1068 11.379 3.1261 11.359 3.1456 11.34 3.165 11.32 3.1845 11.301 3.2038 11.278 3.2233 11.262 3.2394 11.243 3.2621 11.223 3.2815 11.203 3.301 11.204 3.3398 11.184 3.3591 11.165 3.3786 11.146 3.398 11.125 3.4175 11.126 3.4563 11.107 3.4757 11.085 3.4951 11.087 3.534 11.068 3.5533 11.048 3.5728 11.029 3.5922 11.01 3.6117 10.99 3.631 10.971 3.6505 10.99 3.6707 11.01 3.6505 11.029 3.6311 11.049 3.6117 11.068 3.5923 11.107 3.5932 11.128 3.5728 11.146 3.555 11.165 3.534 11.184 3.5146 11.204 3.4951 11.223 3.4758 11.262 3.4769 11.282 3.4563 11.301 3.437 11.34 3.4374 11.359 3.4175 11.379 3.3981 11.398 3.3786 11.418 3.3593 11.456 3.3602 11.476 3.3398 11.495 3.3205 11.534 3.3224 11.554 3.301 11.573 3.2816 11.612 3.2816 11.65 3.2828 11.67 3.2621 11.689 3.2428 11.728 3.2428 11.767 3.2429 11.786 3.2233 11.806 3.204 11.845 3.204 11.884 3.204 11.922 3.204 11.961 3.204 12 3.2049 12.039 3.204 12.078 3.2046 12.116 3.2047 12.155 3.2046 12.194 3.2046 12.233 3.2046 12.272 3.2043 12.311 3.2044 12.35 3.2046 12.388 3.2048 12.427 3.204 12.466 3.204 12.505 3.204 12.544 3.204 12.563 3.2233 12.582 3.2428 12.621 3.2428 12.66 3.2428 12.68 3.2621 12.699 3.2827 12.738 3.2828 12.777 3.2816 12.816 3.2816 12.854 3.2816 12.874 3.301 12.893 3.3218 12.932 3.3205 12.951 3.3398 12.971 3.3598 13.01 3.3602 13.048 3.3593 13.087 3.3593 13.107 3.3786 13.126 3.3988 13.165 3.3991 13.204 3.399 13.243 3.3987 13.282 3.3981 13.32 3.3981 13.359 3.3981 13.398 3.3981 13.437 3.3981 13.476 3.3981 13.515 3.3981 13.553 3.3981 13.592 3.3981 13.631 3.3981 13.67 3.3981 13.709 3.3981 13.748 3.3981 13.786 3.3981 13.825 3.3981 13.864 3.3981 13.903 3.3981 13.942 3.3981 13.981 3.3981 14.019 3.3981 14.058 3.3981 14.078 3.4175 14.097 3.437 14.116 3.4563 14.116 3.4951 14.116 3.534 14.116 3.5728 14.097 3.5922 14.078 3.6117 14.058 3.631 14.039 3.6505 14.039 3.6893 14.019 3.7087 14 3.7282 13.981 3.7475 13.961 3.767 13.942 3.7863 13.922 3.8058 13.922 3.8447 13.903 3.864 13.882 3.8835 13.883 3.9223 13.883 3.9612 13.864 3.9805 13.845 4 13.825 4.0193 13.805 4.0388 13.806 4.0777 13.786 4.097 13.767 4.1165 13.767 4.1553 13.748 4.1747 13.728 4.1942 13.728 4.233 13.709 4.2524 13.688 4.2718 13.688 4.3107 13.689 4.3495 13.689 4.3883 13.67 4.4077 13.65 4.4272 13.648 4.466 13.65 4.5049 13.631 4.5242 13.611 4.5437 13.61 4.5825 13.611 4.6214 13.611 4.6602 13.611 4.699 13.631 4.7185 13.65 4.7379 13.65 4.7767 13.65 4.8155 13.65 4.8544 13.649 4.8932 13.649 4.932 13.67 4.9515 13.689 4.9709 13.683 5.0097 13.689 5.0485 13.687 5.0874 13.687 5.1262 13.688 5.165 13.688 5.2039 13.688 5.2427 13.688 5.2816 13.688 5.3204 13.688 5.3592 13.689 5.3981 13.686 5.4369 13.689 5.4757 13.689 5.5146 13.67 5.5339 13.65 5.5534 13.65 5.5922 13.65 5.6311 13.631 5.6504 13.61 5.6699 13.612 5.7087 13.592 5.7281 13.572 5.7476 13.592 5.7671 13.612 5.7864 13.631 5.8065 13.67 5.8059 13.689 5.8252 13.709 5.8463 13.748 5.8464 13.786 5.8447 13.825 5.8447 13.845 5.8641 13.864 5.8836 13.903 5.8836 13.922 5.9029 13.942 5.9241 13.981 5.9224 14 5.9417 14.019 5.9612 14.039 5.9806 14.058 6.0001 14.078 6.0194 14.097 6.041 14.114 6.0583 14.136 6.0777 14.155 6.0971 14.175 6.1166 14.194 6.1359 14.214 6.1554 14.233 6.1748 14.252 6.1943 14.272 6.2136 14.291 6.2331 14.311 6.2524 14.33 6.2719 14.349 6.2913 14.369 6.3108 14.388 6.3301 14.408 6.3496 14.427 6.3689 14.426 6.4078 14.447 6.4273 14.466 6.4466 14.485 6.467 14.524 6.4661 14.544 6.4854 14.563 6.5049 14.582 6.5243 14.582 6.5631 14.602 6.5833 14.641 6.5826 14.66 6.6019 14.68 6.6214 14.699 6.6408 14.718 6.6603 14.738 6.6796 14.757 6.6991 14.777 6.7184 14.796 6.7379 14.816 6.7573 14.835 6.7779 14.874 6.7768 14.893 6.7961 14.913 6.8156 14.932 6.835 14.952 6.8544 14.971 6.8738 14.99 6.8942 15.029 6.8933 15.048 6.9126 15.068 6.9337 15.086 6.9515 15.107 6.9721 15.146 6.9709 15.165 6.9903 15.184 7.0111 15.223 7.0098 15.243 7.0291 15.262 7.0486 15.301 7.0486 15.32 7.068 15.34 7.0875 15.359 7.1068 15.379 7.1268 15.418 7.1276 15.456 7.1263 15.476 7.1456 15.495 7.1659 15.534 7.1651 15.553 7.1845 15.573 7.204 15.592 7.2233 15.592 7.2621 15.591 7.301 15.573 7.3191 15.552 7.3398 15.553 7.3786 15.534 7.398 15.514 7.4175 15.495 7.4368 15.474 7.4563 15.456 7.4743 15.437 7.4951 15.418 7.5145 15.398 7.534 15.379 7.5533 15.358 7.5728 15.359 7.6117 15.34 7.631 15.32 7.6505 15.301 7.6698 15.282 7.6893 15.262 7.7087 15.243 7.7282 15.223 7.7475 15.204 7.767 15.184 7.7863 15.165 7.8058 15.146 7.8252 15.126 7.8447 15.107 7.864 15.086 7.8835 15.087 7.9223 15.068 7.9417 15.048 7.9612 15.029 7.9805 15.01 8 14.99 8.0193 14.97 8.0388 14.971 8.0777 14.952 8.097 14.932 8.1165 14.913 8.1358 14.893 8.1553 14.874 8.1747 14.854 8.1942 14.854 8.233 14.835 8.2524 14.815 8.2718 14.816 8.3107 14.816 8.3495 14.796 8.3689 14.776 8.3883 14.777 8.4272 14.757 8.4465 14.738 8.466 14.738 8.5049 14.718 8.5242 14.698 8.5437 14.699 8.5825 14.68 8.6019 14.66 8.6214 14.641 8.6407 14.621 8.6602 14.621 8.699 14.602 8.7184 14.582 8.7379 14.563 8.7572 14.544 8.7767 14.524 8.796 14.505 8.8155 14.485 8.8349 14.466 8.8544 14.447 8.8737 14.417 8.8932 14.408 8.9021 14.369 8.9117 14.349 8.932 14.33 8.9514 14.291 8.9503 14.252 8.9495 14.233 8.9709 14.214 8.9902 14.194 9.0097 14.175 9.0291 14.136 9.0282 14.116 9.0485 14.097 9.0679 14.058 9.0664 14.039 9.0874 14.019 9.1067 13.981 9.1067 13.942 9.1055 13.903 9.1055 13.883 9.1262 13.864 9.1456 13.825 9.1456 13.786 9.1456 13.748 9.1441 13.709 9.144 13.67 9.1436 13.631 9.1435 13.612 9.165 13.592 9.1844 13.553 9.1844 13.515 9.1844 13.476 9.1835 13.437 9.1837 13.398 9.1825 13.359 9.1827 13.32 9.1829 13.282 9.1828 13.243 9.1823 13.204 9.182 13.184 9.2039 13.165 9.2232 13.143 9.2427 13.165 9.2633 13.204 9.2622 13.223 9.2816 13.243 9.301 13.262 9.3204 13.282 9.3429 13.32 9.3426 13.359 9.3399 13.379 9.3592 13.398 9.3801 13.437 9.3787 13.456 9.3981 13.476 9.419 13.494 9.4369 13.515 9.4564 13.534 9.4757 13.553 9.4967 13.592 9.4952 13.612 9.5146 13.631 9.5379 13.647 9.5534 13.67 9.5729 13.689 9.5922 13.709 9.6135 13.726 9.6311 13.748 9.6506 13.786 9.6506 13.806 9.6699 13.825 9.6894 13.845 9.7087 13.864 9.7282 13.883 9.7476 13.903 9.7671 13.922 9.7864 13.942 9.8059 13.961 9.8252 13.981 9.8447 14 9.8641 14.019 9.8836 14.039 9.9029 14.058 9.9224 14.078 9.9417 14.097 9.9612 14.116 9.9806 14.116 10.019 14.136 10.041 14.154 10.058 14.175 10.078 14.194 10.097 14.193 10.136 14.214 10.155 14.233 10.175 14.231 10.214 14.231 10.252 14.252 10.272 14.272 10.291 14.272 10.33 14.27 10.369 14.271 10.408 14.291 10.427 14.311 10.447 14.311 10.485 14.31 10.524 14.31 10.563 14.31 10.602 14.33 10.621 14.349 10.641 14.349 10.68 14.348 10.718 14.348 10.757 14.369 10.777 14.388 10.796 14.388 10.835 14.388 10.874 14.388 10.913 14.408 10.932 14.427 10.952 14.425 10.99 14.426 11.029 14.425 11.068 14.447 11.088 14.466 11.107 14.465 11.146 14.485 11.165 14.505 11.184 14.504 11.223 14.524 11.243 14.544 11.262 14.544 11.301 14.543 11.34 14.563 11.359 14.582 11.379 14.582 11.418 14.602 11.437 14.621 11.456 14.621 11.495 14.62 11.534 14.62 11.573 14.641 11.592 14.66 11.612 14.659 11.65 14.658 11.689 14.658 11.728 14.66 11.767 14.641 11.786 14.602 11.785 14.563 11.785 14.544 11.806 14.524 11.825 14.485 11.825 14.447 11.825 14.408 11.825 14.369 11.824 14.349 11.845 14.33 11.864 14.291 11.864 14.252 11.864 14.214 11.862 14.175 11.863 14.136 11.862 14.097 11.862 14.058 11.862 14.039 11.884 14.019 11.903 13.981 11.901 13.942 11.901 13.903 11.901 13.883 11.922 13.864 11.942 13.825 11.94 13.786 11.94 13.767 11.961 13.748 11.98 13.709 11.979 13.689 12 13.67 12.019 13.631 12.019 13.592 12.018 13.573 12.039 13.553 12.058 13.515 12.057 13.495 12.078 13.476 12.097 13.456 12.116 13.437 12.136 13.413 12.155 13.398 12.17 13.379 12.194 13.359 12.214 13.34 12.233 13.32 12.252 13.301 12.272 13.282 12.291 13.262 12.311 13.243 12.33 13.223 12.35 13.204 12.369 13.165 12.367 13.126 12.367 13.087 12.367 13.048 12.367 13.01 12.367 12.971 12.367 12.932 12.369 12.913 12.35 12.893 12.328 12.854 12.33 12.835 12.311 12.816 12.291 12.777 12.29 12.755 12.311 12.738 12.328 12.718 12.35 12.699 12.369 12.66 12.367 12.641 12.388 12.621 12.408 12.582 12.406 12.544 12.405 12.505 12.405 12.485 12.427 12.466 12.446 12.427 12.446 12.388 12.446 12.35 12.445 12.311 12.445 12.272 12.446 12.233 12.446 12.194 12.446 12.155 12.446 12.116 12.445 12.078 12.446 12.058 12.427 12.039 12.405 12.019 12.427 12 12.446 11.98 12.466 11.979 12.505 11.978 12.544 11.98 12.582 11.98 12.621 11.961 12.641 11.94 12.66 11.94 12.699 11.94 12.738 11.94 12.777 11.942 12.816 11.942 12.854 11.942 12.893 11.942 12.932 11.922 12.951 11.901 12.971 11.901 13.01 11.901 13.048 11.901 13.087 11.901 13.126 11.901 13.165 11.901 13.204 11.922 13.223 11.942 13.243 11.94 13.282 11.94 13.32 11.94 13.359 11.961 13.379 11.98 13.398 11.977 13.437 11.979 13.476 11.978 13.515 11.961 13.531 11.941 13.553 11.922 13.572 11.884 13.571 11.845 13.571 11.827 13.553 11.806 13.532 11.767 13.533 11.728 13.534 11.709 13.515 11.689 13.494 11.65 13.494 11.612 13.495 11.592 13.476 11.573 13.455 11.534 13.456 11.515 13.437 11.495 13.416 11.456 13.417 11.418 13.417 11.398 13.398 11.379 13.379 11.359 13.359 11.34 13.338 11.301 13.337 11.262 13.338 11.223 13.34 11.184 13.34 11.165 13.32 11.146 13.299 11.107 13.299 11.068 13.301 11.049 13.282 11.029 13.26 10.99 13.261 10.952 13.262 10.913 13.26 10.874 13.26 10.835 13.26 10.796 13.262 10.757 13.261 10.718 13.26 10.699 13.282 10.68 13.301 10.641 13.301 10.602 13.299 10.563 13.299 10.524 13.301 10.485 13.298 10.447 13.301 10.427 13.282 10.408 13.26 10.369 13.261 10.33 13.262 10.311 13.243 10.291 13.222 10.252 13.223 10.233 13.204 10.214 13.184 10.194 13.165 10.175 13.144 10.136 13.146 10.117 13.126 10.097 13.107 10.078 13.087 10.058 13.068 10.039 13.048 10.019 13.029 10 13.01 9.9806 12.989 9.9627 12.971 9.9417 12.949 9.9029 12.951 9.8641 12.951 9.8252 12.951 9.7864 12.951 9.7476 12.951 9.7087 12.951 9.6699 12.951 9.6311 12.951 9.5922 12.951 9.5534 12.951 9.5146 12.951 9.4757 12.951 9.4564 12.932 9.4369 12.91 9.3981 12.91 9.3592 12.911 9.3204 12.91 9.2816 12.91 9.2621 12.932 9.2621 12.971 9.2427 12.99 9.2215 13.01 9.2216 13.048 9.2232 13.087 9.2039 13.107 9.1825 13.126 9.1835 13.165 9.1844 13.204 9.165 13.223 9.1438 13.243 9.1445 13.282 9.1456 13.32 9.1456 13.359 9.1262 13.379 9.1058 13.398 9.1067 13.437 9.1067 13.476 9.0874 13.495 9.0679 13.515 9.0485 13.534 9.0291 13.553 9.0097 13.573 8.9884 13.592 8.9709 13.61 8.9495 13.631 8.9514 13.67 8.932 13.689 8.9125 13.709 8.8932 13.728 8.8728 13.748 8.8737 13.786 8.8544 13.806 8.8349 13.825 8.8155 13.845 8.796 13.864 8.7767 13.883 8.756 13.903 8.7379 13.921 8.7176 13.942 8.7184 13.981 8.699 14 8.6754 14.019 8.6602 14.035 8.6375 14.058 8.6214 14.074 8.6019 14.097 8.5825 14.116 8.5616 14.136 8.5437 14.154 8.5227 14.175 8.5049 14.193 8.4832 14.214 8.4854 14.252 8.466 14.272 8.4465 14.291 8.4465 14.33 8.4272 14.349 8.4052 14.369 8.3883 14.386 8.3675 14.408 8.3689 14.447 8.3689 14.485 8.3495 14.505 8.3293 14.524 8.3282 14.563 8.33 14.602 8.3107 14.621 8.2894 14.641 8.2895 14.68 8.2899 14.718 8.2904 14.757 8.2912 14.796 8.2912 14.835 8.2718 14.854 8.2512 14.874 8.2515 14.913 8.2513 14.952 8.2509 14.99 8.2513 15.029 8.2515 15.068 8.2512 15.107 8.2511 15.146 8.2511 15.184 8.2524 15.223 8.233 15.243 8.2135 15.262 8.1942 15.282" fill="#fff" stroke="#0B1121"/>
<polyline points="8.3516 6.0583 8.3883 6.0194 8.4152 5.9806 8.4272 5.9633 8.4488 5.9417 8.466 5.9107 8.4703 5.9029 8.466 5.8835 8.4272 5.8874 8.3981 5.8641 8.3883 5.8544 8.3865 5.8641 8.3806 5.9029 8.3704 5.9417 8.3495 5.972 8.3476 5.9806 8.3417 6.0194 8.3467 6.0583 8.3495 6.0615 8.3516 6.0583" fill="none" stroke="#0B1121"/>
<polyline points="8.1726 6.6796 8.1553 6.6602 8.1359 6.6408 8.1489 6.6019 8.1553 6.5942 8.1709 6.5631 8.1942 6.552 8.233 6.5391 8.2613 6.5243 8.2718 6.5198 8.3107 6.5 8.3252 6.4854 8.3495 6.459 8.3604 6.4466 8.3851 6.4078 8.3883 6.4 8.4013 6.3689 8.3883 6.3467 8.3495 6.3301 8.3252 6.2913 8.3107 6.2621 8.2718 6.2796 8.2646 6.2913 8.233 6.3273 8.2307 6.3301 8.1942 6.3689 8.1571 6.4078 8.1553 6.4095 8.1165 6.4376 8.1049 6.4466 8.0777 6.4602 8.0388 6.4688 8 6.4738 7.9612 6.4713 7.9223 6.4603 7.8835 6.4519 7.8447 6.4466 7.8058 6.4223 7.7725 6.4078 7.767 6.4022 7.7282 6.3689 7.6893 6.343 7.6583 6.3301 7.6505 6.3262 7.6117 6.2961 7.603 6.2913 7.5728 6.2686 7.5485 6.2524 7.534 6.2395 7.4951 6.2228 7.4775 6.2136 7.4563 6.1924 7.432 6.1748 7.4175 6.1618 7.3786 6.1392 7.3709 6.1359 7.3398 6.1165 7.301 6.0971 7.2621 6.0841 7.2233 6.0777 7.1845 6.0738 7.1456 6.0583 7.1068 6.0712 7.068 6.0841 7.0291 6.0841 6.9903 6.0971 7 6.1359 6.9903 6.1456 6.9736 6.1748 6.9903 6.1942 7.0291 6.2136 7.0194 6.2524 7.0291 6.2621 7.0583 6.2913 7.0291 6.3204 7.0194 6.3301 7.0291 6.3333 7.0558 6.3689 7.068 6.3736 7.1068 6.3851 7.1238 6.4078 7.1456 6.4154 7.1845 6.4196 7.2155 6.4466 7.2233 6.4496 7.2621 6.4637 7.2952 6.4854 7.301 6.4878 7.3398 6.5022 7.3754 6.5243 7.3786 6.5258 7.4175 6.5389 7.4563 6.5594 7.4593 6.5631 7.4951 6.5832 7.534 6.5986 7.5429 6.6019 7.5728 6.6103 7.6117 6.6161 7.6505 6.6211 7.6893 6.6251 7.7188 6.6408 7.7282 6.6437 7.767 6.6525 7.8058 6.6584 7.8447 6.6687 7.8729 6.6796 7.8835 6.6824 7.9223 6.6875 7.9612 6.6913 8 6.6915 8.0388 6.6909 8.0777 6.6867 8.1165 6.683 8.1553 6.6846 8.1726 6.6796" fill="none" stroke="#0B1121"/>
<polyline points="8.9795 7.1456 8.9709 7.1345 8.932 7.1094 8.9265 7.1068 8.8932 7.0856 8.8544 7.068 8.8233 7.0291 8.8155 7.0243 8.7767 7.0097 8.7379 6.9938 8.7301 6.9903 8.699 6.973 8.6602 6.9691 8.6325 6.9515 8.6214 6.9437 8.5825 6.9459 8.5437 6.9376 8.5049 6.9165 8.4919 6.9126 8.466 6.9056 8.4272 6.8854 8.3883 6.8738 8.4125 6.9126 8.4272 6.9291 8.4483 6.9515 8.466 6.9692 8.4814 6.9903 8.5049 7.0138 8.5196 7.0291 8.5437 7.0492 8.5587 7.068 8.5825 7.0848 8.6214 7.1035 8.6255 7.1068 8.6602 7.1264 8.6872 7.1456 8.699 7.1535 8.7379 7.1613 8.7767 7.167 8.8155 7.1742 8.8544 7.1794 8.8932 7.1815 8.932 7.1776 8.9709 7.1508 8.9795 7.1456" fill="none" stroke="#0B1121"/>
<polyline points="8.1498 7.534 8.1553 7.5316 8.1942 7.5256 8.233 7.5238 8.2718 7.5179 8.3107 7.499 8.3167 7.4951 8.3107 7.4914 8.2823 7.4563 8.2718 7.4518 8.233 7.442 8.1942 7.4405 8.1553 7.4374 8.1165 7.436 8.0777 7.4316 8.0388 7.4275 8 7.4256 7.9612 7.423 7.9223 7.4234 7.8835 7.4301 7.8447 7.4364 7.8058 7.4395 7.767 7.452 7.7463 7.4175 7.767 7.4068 7.7972 7.3786 7.8058 7.3716 7.8386 7.3398 7.8447 7.3329 7.8755 7.301 7.8835 7.288 7.9168 7.2621 7.9223 7.2573 7.9612 7.2282 7.9689 7.2233 7.9612 7.2203 7.9279 7.1845 7.9223 7.1822 7.8835 7.1654 7.8447 7.1588 7.8058 7.1573 7.767 7.1542 7.7282 7.1498 7.6893 7.1465 7.6796 7.1456 7.6505 7.1412 7.6117 7.1352 7.5728 7.1276 7.534 7.1212 7.4951 7.1146 7.4628 7.1068 7.4563 7.1045 7.4175 7.0947 7.3786 7.0769 7.3641 7.068 7.3398 7.0565 7.301 7.0513 7.2621 7.0388 7.2492 7.0291 7.2233 7.018 7.2122 7.0291 7.2233 7.055 7.233 7.068 7.2566 7.1068 7.2427 7.1456 7.233 7.1845 7.233 7.2233 7.2233 7.2272 7.1845 7.2388 7.1456 7.2524 7.1068 7.2621 7.068 7.2621 7.0291 7.2557 7.0162 7.2621 6.9903 7.2673 6.9515 7.2677 6.9126 7.2621 6.8738 7.2557 6.835 7.2382 6.7961 7.2304 6.7573 7.2233 6.7184 7.2087 6.6796 7.1996 6.6408 7.1974 6.6019 7.1926 6.5631 7.1845 6.5243 7.1706 6.4854 7.1663 6.4466 7.1636 6.4078 7.1602 6.3689 7.1623 6.3467 7.1845 6.3301 7.2078 6.3282 7.2233 6.3301 7.2259 6.3587 7.2621 6.3689 7.2736 6.3917 7.301 6.4078 7.3099 6.4466 7.3232 6.4768 7.3398 6.4854 7.343 6.5243 7.3474 6.5631 7.3528 6.6019 7.3563 6.6408 7.3581 6.6796 7.359 6.7184 7.3599 6.7573 7.3612 6.7961 7.363 6.835 7.3652 6.8738 7.3666 6.911 7.3786 6.9126 7.3792 6.9515 7.3828 6.9903 7.3866 7.0291 7.3911 7.068 7.3968 7.1068 7.4047 7.1456 7.4137 7.1543 7.4175 7.1845 7.4286 7.2233 7.4359 7.2621 7.4405 7.301 7.4526 7.3082 7.4563 7.3398 7.4674 7.3786 7.4788 7.4128 7.4951 7.4175 7.4974 7.4563 7.5038 7.4951 7.5083 7.534 7.5157 7.5728 7.5241 7.6052 7.534 7.6117 7.536 7.6505 7.5428 7.6893 7.5496 7.7282 7.5494 7.767 7.5508 7.8058 7.5546 7.8447 7.5585 7.8835 7.5605 7.9223 7.5615 7.9612 7.5592 8 7.5574 8.0388 7.5591 8.0777 7.5575 8.1165 7.5495 8.1498 7.534" fill="none" stroke="#0B1121"/>
<polyline points="9.5291 7.8835 9.5534 7.8714 9.5922 7.8487 9.5972 7.8447 9.6311 7.8085 9.6337 7.8058 9.6602 7.767 9.6588 7.7282 9.6621 7.6893 9.6505 7.6505 9.6311 7.6246 9.6233 7.6117 9.5922 7.5728 9.5825 7.534 9.5534 7.4951 9.5146 7.4641 9.5049 7.4563 9.4757 7.4175 9.4524 7.3786 9.4369 7.3631 9.4136 7.3398 9.3981 7.3243 9.3814 7.301 9.3592 7.2621 9.3333 7.301 9.3204 7.3121 9.3049 7.301 9.2816 7.2978 9.2765 7.301 9.2427 7.3252 9.2153 7.3398 9.2039 7.3463 9.165 7.3642 9.1368 7.3786 9.1262 7.3839 9.0874 7.4023 9.0648 7.4175 9.0485 7.4311 9.0097 7.443 8.9782 7.4563 8.9709 7.461 8.932 7.4635 8.9049 7.4563 8.8932 7.4527 8.8544 7.4496 8.8155 7.4466 8.7979 7.4563 8.8155 7.4597 8.8544 7.4644 8.8711 7.4951 8.8932 7.5101 8.927 7.534 8.932 7.5385 8.9618 7.5728 8.9709 7.5888 8.9924 7.6117 9.007 7.6505 9.0097 7.6583 9.0356 7.6893 9.044 7.7282 9.0485 7.754 9.0874 7.7476 9.1068 7.767 9.1262 7.8058 9.165 7.767 9.2039 7.7903 9.2233 7.8058 9.2427 7.8155 9.2816 7.8447 9.3204 7.8592 9.3592 7.8662 9.3981 7.8764 9.4239 7.8835 9.4369 7.8913 9.4757 7.8913 9.5146 7.89 9.5291 7.8835" fill="none" stroke="#0B1121"/>
<polyline points="6.0427 7.4563 6.0583 7.4175 6.0971 7.4268 6.1359 7.4222 6.1748 7.4191 6.1834 7.4175 6.2136 7.4087 6.2524 7.4041 6.2733 7.3786 6.2524 7.3605 6.2265 7.3398 6.2136 7.3305 6.1748 7.3074 6.1395 7.3398 6.1359 7.3447 6.0971 7.3689 6.0922 7.3786 6.0583 7.4175 6.0194 7.4473 6.0078 7.4563 6.0194 7.4587 6.0427 7.4563" fill="none" stroke="#0B1121"/>
<polyline points="8.767 7.4175 8.7379 7.411 8.699 7.4094 8.6874 7.4175 8.699 7.422 8.7379 7.4233 8.767 7.4175" fill="none" stroke="#0B1121"/>
<polyline points="5.1456 7.4951 5.1392 7.4563 5.1262 7.4508 5.1068 7.4563 5.1133 7.4951 5.1262 7.5081 5.1456 7.4951" fill="none" stroke="#0B1121"/>
<polyline points="7.7282 7.4656 7.7066 7.4563 7.7282 7.4401 7.7605 7.4563 7.7282 7.4656" fill="none" stroke="#0B1121"/>
<polyline points="5.2686 7.534 5.2686 7.4951 5.2427 7.4887 5.2233 7.4951 5.2039 7.534 5.2427 7.5599 5.2686 7.534" fill="none" stroke="#0B1121"/>
<polyline points="6.8756 7.9223 6.8903 7.8835 6.9029 7.8447 6.9071 7.8058 6.9018 7.767 6.8957 7.7282 6.8746 7.6893 6.8738 7.6886 6.835 7.655 6.8303 7.6505 6.7961 7.6225 6.7767 7.6117 6.7573 7.601 6.7184 7.5876 6.6826 7.5728 6.6796 7.5717 6.6408 7.5628 6.6019 7.5588 6.5631 7.5502 6.5243 7.5402 6.4854 7.5364 6.4688 7.534 6.4466 7.5315 6.4078 7.5263 6.3689 7.5308 6.356 7.534 6.3301 7.5728 6.3689 7.6026 6.3883 7.6117 6.4078 7.6286 6.4466 7.6505 6.4854 7.6893 6.5132 7.7282 6.5243 7.7437 6.5476 7.767 6.5631 7.7799 6.5825 7.8058 6.5922 7.8447 6.6019 7.8602 6.6252 7.8835 6.6408 7.8906 6.6667 7.8835 6.6796 7.8803 6.6874 7.8835 6.7184 7.9029 6.7573 7.9068 6.7961 7.9223 6.835 7.9452 6.8738 7.9253 6.8756 7.9223" fill="none" stroke="#0B1121"/>
<polyline points="8.068 8.7379 8.0777 8.7326 8.1165 8.7187 8.1553 8.7024 8.159 8.699 8.1806 8.6602 8.1942 8.6389 8.2034 8.6214 8.215 8.5825 8.233 8.5502 8.2373 8.5437 8.2514 8.5049 8.2615 8.466 8.2718 8.4491 8.2812 8.4272 8.3086 8.3883 8.3107 8.3865 8.3467 8.3495 8.3495 8.347 8.3883 8.3171 8.3942 8.3107 8.4139 8.2718 8.4272 8.249 8.4366 8.233 8.4554 8.1942 8.466 8.181 8.4889 8.1553 8.5049 8.135 8.5296 8.1165 8.5437 8.1015 8.5825 8.0848 8.5984 8.0777 8.6214 8.0583 8.6602 8.0443 8.6753 8.0388 8.699 8.0104 8.7212 8 8.699 7.9778 8.6874 7.9612 8.699 7.9379 8.7379 7.9223 8.7573 7.8835 8.7767 7.8544 8.781 7.8447 8.7922 7.8058 8.7908 7.767 8.7878 7.7282 8.7789 7.6893 8.7767 7.6854 8.7517 7.6505 8.7379 7.6343 8.7152 7.6117 8.699 7.6045 8.6634 7.5728 8.6602 7.5711 8.6214 7.5553 8.5825 7.5397 8.5745 7.534 8.5437 7.52 8.5049 7.5098 8.466 7.5129 8.4272 7.5176 8.4013 7.534 8.3883 7.5599 8.3806 7.5728 8.3773 7.6117 8.3495 7.644 8.344 7.6505 8.3107 7.6838 8.3051 7.6893 8.2718 7.7152 8.2524 7.7282 8.233 7.7427 8.1942 7.7627 8.1748 7.767 8.1553 7.7691 8.1165 7.7753 8.0777 7.7786 8.0388 7.7784 8 7.7763 7.9612 7.7755 7.9223 7.7725 7.8835 7.767 7.8447 7.7549 7.8058 7.747 7.767 7.7368 7.7448 7.7282 7.7282 7.7215 7.6893 7.7112 7.6505 7.7008 7.6189 7.6893 7.6117 7.6867 7.5728 7.6761 7.534 7.6681 7.4951 7.6565 7.4779 7.6505 7.4563 7.6471 7.4175 7.6454 7.3786 7.6472 7.3398 7.6505 7.3786 7.6764 7.3942 7.6893 7.4175 7.7184 7.4223 7.7282 7.4341 7.767 7.4485 7.8058 7.4272 7.8447 7.4175 7.8511 7.3786 7.8835 7.3398 7.9146 7.3269 7.9223 7.3398 7.9288 7.3786 7.9439 7.4175 7.9429 7.4563 7.9398 7.4951 7.9347 7.534 7.9329 7.5728 7.932 7.6117 7.9292 7.6505 7.9296 7.6893 7.9262 7.7282 7.9301 7.767 7.9301 7.8058 7.934 7.8447 7.9435 7.8835 7.9534 7.9223 7.9563 7.9612 7.9612 7.9922 8 8 8.0097 8.0388 8.0291 8.0583 8.0388 8.0777 8.0777 8.068 8.1165 8.0666 8.1553 8.0583 8.1942 8.0485 8.233 8.0388 8.246 8.0277 8.2718 8.0055 8.3107 8 8.3236 7.9871 8.3495 7.9757 8.3883 7.965 8.4272 7.9612 8.4337 7.9417 8.466 7.9353 8.5049 7.9279 8.5437 7.9223 8.5825 7.9146 8.6214 7.9126 8.6602 7.9137 8.699 7.9223 8.712 7.9396 8.7379 7.9612 8.7408 8 8.745 8.0388 8.7452 8.068 8.7379" fill="none" stroke="#0B1121"/>
<polyline points="6.0477 7.8835 6.0583 7.8782 6.0971 7.8509 6.1036 7.8447 6.1359 7.8087 6.1383 7.8058 6.1748 7.7724 6.1799 7.767 6.2034 7.7282 6.2136 7.7126 6.2271 7.6893 6.2345 7.6505 6.232 7.6117 6.222 7.5728 6.2136 7.5683 6.1748 7.5661 6.1359 7.5669 6.111 7.5728 6.0971 7.5825 6.0583 7.6057 6.0371 7.6117 6.0194 7.6394 6.0083 7.6505 5.9912 7.6893 5.9806 7.7282 5.9676 7.767 5.9594 7.8058 5.9482 7.8447 5.965 7.8835 5.9806 7.9223 6.0194 7.9074 6.0477 7.8835" fill="none" stroke="#0B1121"/>
<polyline points="5.4471 7.6893 5.4545 7.6505 5.4369 7.6117 5.3981 7.6011 5.3689 7.6117 5.3981 7.6233 5.4207 7.6505 5.422 7.6893 5.4369 7.6932 5.4471 7.6893" fill="none" stroke="#0B1121"/>
<polyline points="9.0874 7.7087 9.0831 7.6893 9.0874 7.6861 9.0939 7.6893 9.0874 7.7087" fill="none" stroke="#0B1121"/>
<polyline points="6.6201 8.7767 6.6408 8.7663 6.6796 8.753 6.7184 8.7388 6.7206 8.7379 6.7573 8.7166 6.7935 8.699 6.7961 8.6972 6.835 8.6744 6.8655 8.6602 6.8738 8.6555 6.9126 8.6376 6.9515 8.6258 6.966 8.6214 6.9903 8.6147 7.0291 8.6068 7.068 8.596 7.1068 8.5851 7.1262 8.5825 7.1456 8.5808 7.1586 8.5825 7.1845 8.5912 7.2233 8.6214 7.2476 8.5825 7.2621 8.5752 7.2982 8.5437 7.301 8.5423 7.316 8.5049 7.301 8.4765 7.2925 8.466 7.2621 8.4302 7.2566 8.4272 7.2233 8.4039 7.2067 8.3883 7.1845 8.3669 7.1592 8.3495 7.1456 8.3314 7.1111 8.3107 7.1068 8.3074 7.068 8.2718 7.0291 8.2764 7.0221 8.2718 6.9903 8.2552 6.9658 8.233 6.9515 8.216 6.932 8.1942 6.9126 8.1592 6.9102 8.1553 6.8982 8.1165 6.9126 8.0777 6.8738 8.0593 6.835 8.0737 6.8039 8.0777 6.7961 8.0809 6.7573 8.1165 6.7684 8.1553 6.7767 8.1942 6.767 8.233 6.767 8.2718 6.767 8.3107 6.7573 8.3495 6.7476 8.3883 6.7184 8.4272 6.6951 8.466 6.6796 8.4919 6.6602 8.5049 6.6408 8.5146 6.6019 8.5282 6.5631 8.5437 6.5243 8.5748 6.5113 8.5825 6.4854 8.6084 6.4757 8.6214 6.4466 8.6602 6.4337 8.699 6.4078 8.7379 6.3689 8.7379 6.3754 8.7767 6.4078 8.7839 6.4466 8.7896 6.4854 8.7995 6.5243 8.7989 6.5631 8.7933 6.6019 8.7824 6.6201 8.7767" fill="none" stroke="#0B1121"/>
<polyline points="9.7087 8.5437 9.7217 8.5049 9.7476 8.4854 9.7631 8.466 9.7864 8.4272 9.7864 8.3883 9.7864 8.3495 9.7864 8.3107 9.7864 8.2718 9.7786 8.233 9.7709 8.1942 9.767 8.1553 9.7476 8.1359 9.7087 8.1456 9.6828 8.1553 9.6699 8.1612 9.6311 8.1867 9.6214 8.1942 9.5922 8.2165 9.5645 8.233 9.5534 8.2414 9.5146 8.2681 9.5109 8.2718 9.5016 8.3107 9.5116 8.3495 9.5146 8.3547 9.5326 8.3883 9.5465 8.4272 9.5534 8.4421 9.5682 8.466 9.5922 8.5049 9.6311 8.5372 9.644 8.5437 9.6699 8.554 9.7087 8.5437" fill="none" stroke="#0B1121"/>
<polyline points="8.0518 10.369 8.0777 10.338 8.0841 10.33 8.1165 10.291 8.1456 10.252 8.1553 10.247 8.1942 10.223 8.2006 10.214 8.233 10.175 8.2718 10.144 8.2796 10.136 8.294 10.097 8.3107 10.074 8.3366 10.058 8.3495 10.05 8.3883 10.029 8.3981 10.019 8.4272 9.9806 8.466 9.9495 8.4738 9.9417 8.4919 9.9029 8.5049 9.8997 8.5437 9.8874 8.5728 9.8641 8.5825 9.8252 8.6214 9.8123 8.6259 9.7864 8.6401 9.7476 8.6602 9.7112 8.6609 9.7087 8.6683 9.6699 8.6716 9.6311 8.6704 9.5922 8.6602 9.5534 8.6453 9.5922 8.6398 9.6311 8.6214 9.6699 8.5885 9.7087 8.5825 9.7152 8.5437 9.7435 8.5377 9.7476 8.5049 9.7713 8.4746 9.7864 8.466 9.7903 8.4272 9.8078 8.3883 9.8133 8.3495 9.8162 8.3107 9.8126 8.2718 9.8063 8.233 9.7982 8.2083 9.7864 8.1942 9.7745 8.1692 9.7476 8.1553 9.7152 8.1498 9.7087 8.1294 9.6699 8.1252 9.6311 8.1224 9.5922 8.1243 9.5534 8.1257 9.5146 8.1229 9.4757 8.1195 9.4369 8.1173 9.3981 8.1165 9.3883 8.1133 9.3592 8.1165 9.3301 8.1175 9.3204 8.1239 9.2816 8.1329 9.2427 8.1441 9.2039 8.1553 9.1683 8.1566 9.165 8.167 9.1262 8.1832 9.0874 8.1942 9.0608 8.2025 9.0485 8.2209 9.0097 8.233 8.9795 8.2392 8.9709 8.2563 8.932 8.2718 8.8971 8.2748 8.8932 8.2864 8.8544 8.2718 8.8466 8.2524 8.8544 8.233 8.8592 8.1942 8.8824 8.1734 8.8932 8.1553 8.9012 8.1165 8.9123 8.0777 8.925 8.0388 8.9296 8 8.9309 7.9612 8.9277 7.9223 8.9188 7.8835 8.9104 7.8447 8.9001 7.8323 8.8932 7.8058 8.8791 7.767 8.8578 7.7619 8.8544 7.7282 8.8375 7.6893 8.8164 7.6879 8.8155 7.6505 8.8017 7.6132 8.7767 7.6117 8.7756 7.5728 8.7587 7.5395 8.7379 7.534 8.7346 7.4951 8.7249 7.4563 8.7379 7.4175 8.7718 7.4139 8.7767 7.3925 8.8155 7.3786 8.8398 7.374 8.8544 7.3642 8.8932 7.3622 8.932 7.3618 8.9709 7.3643 9.0097 7.3774 9.0485 7.3786 9.0507 7.3999 9.0874 7.4175 9.1262 7.4476 9.165 7.4563 9.1745 7.4822 9.2039 7.4951 9.2176 7.534 9.2414 7.5363 9.2427 7.5728 9.2628 7.6035 9.2816 7.6117 9.2867 7.6505 9.2971 7.6893 9.3023 7.7165 9.3204 7.7282 9.3277 7.767 9.3398 7.8058 9.331 7.835 9.3204 7.8447 9.3176 7.8524 9.3204 7.8835 9.3463 7.8913 9.3592 7.918 9.3981 7.9223 9.4036 7.9612 9.4313 7.966 9.4369 7.9859 9.4757 7.9836 9.5146 7.9806 9.5534 7.9829 9.5922 7.9761 9.6311 7.9612 9.6634 7.9581 9.6699 7.9453 9.7087 7.9379 9.7476 7.9612 9.7642 8 9.7531 8.0194 9.7476 8.0388 9.7398 8.0777 9.7476 8.1165 9.7476 8.1476 9.7864 8.1553 9.7994 8.165 9.8252 8.1864 9.8641 8.1683 9.9029 8.1668 9.9417 8.1597 9.9806 8.1553 9.9935 8.1472 10.019 8.1313 10.058 8.1165 10.093 8.1147 10.097 8.1059 10.136 8.0984 10.175 8.082 10.214 8.0777 10.22 8.0655 10.252 8.0499 10.291 8.0388 10.307 8.0342 10.33 8.0324 10.369 8.0388 10.395 8.0518 10.369" fill="none" stroke="#0B1121"/>
<polyline points="8.7 9.5146 8.7049 9.4757 8.7098 9.4369 8.7172 9.3981 8.722 9.3592 8.7379 9.3274 8.7394 9.3204 8.7459 9.2816 8.75 9.2427 8.7527 9.2039 8.7538 9.165 8.7541 9.1262 8.7547 9.0874 8.7526 9.0485 8.7467 9.0097 8.7409 8.9709 8.7417 8.932 8.746 8.8932 8.7451 8.8544 8.7767 8.8183 8.8155 8.8297 8.8223 8.8155 8.8364 8.7767 8.8155 8.7691 8.8068 8.7767 8.7767 8.814 8.7754 8.8155 8.7379 8.8506 8.699 8.8487 8.6898 8.8544 8.6602 8.8721 8.6371 8.8932 8.6214 8.9076 8.5924 8.932 8.5825 8.9405 8.5481 8.9709 8.5437 8.9755 8.5049 9.0079 8.5029 9.0097 8.466 9.0472 8.4649 9.0485 8.434 9.0874 8.4272 9.0934 8.4018 9.1262 8.3883 9.1416 8.3675 9.165 8.3495 9.1905 8.3383 9.2039 8.32 9.2427 8.3107 9.2564 8.2962 9.2816 8.2767 9.3204 8.2718 9.3269 8.2574 9.3592 8.2481 9.3981 8.233 9.4316 8.2312 9.4369 8.2316 9.4757 8.233 9.4854 8.2718 9.5146 8.3107 9.534 8.3495 9.5485 8.3883 9.5491 8.4272 9.5368 8.466 9.5312 8.5049 9.5405 8.5437 9.5479 8.5728 9.5146 8.5825 9.5035 8.6214 9.4924 8.6602 9.5146 8.6602 9.5534 8.699 9.5201 8.7 9.5146" fill="none" stroke="#0B1121"/>
<polyline points="5.6383 9.165 5.6505 9.1262 5.6699 9.0971 5.6755 9.0874 5.699 9.0485 5.7087 9.0366 5.7282 9.0097 5.7476 8.9779 5.7524 8.9709 5.7476 8.9668 5.7217 8.9709 5.7087 8.9748 5.6699 9.0006 5.6452 9.0097 5.6311 9.0238 5.5922 9.0356 5.5534 9.0428 5.5146 9.0485 5.4757 9.0756 5.4621 9.0874 5.4757 9.1146 5.5049 9.1262 5.5049 9.165 5.5146 9.1706 5.5243 9.165 5.5534 9.1417 5.5922 9.165 5.6311 9.1827 5.6383 9.165" fill="none" stroke="#0B1121"/>
<polyline points="6.2718 9.4757 6.2913 9.4369 6.3042 9.3981 6.3301 9.3689 6.3456 9.3592 6.3689 9.3447 6.4078 9.3301 6.4466 9.3204 6.4854 9.3333 6.5243 9.3315 6.5631 9.329 6.6019 9.3247 6.6117 9.3204 6.6408 9.3074 6.6796 9.3049 6.7129 9.2816 6.7184 9.2767 6.7379 9.2816 6.7573 9.2913 6.7767 9.2816 6.7961 9.278 6.8155 9.2427 6.798 9.2039 6.7961 9.2021 6.7591 9.165 6.7573 9.1638 6.7184 9.1435 6.7025 9.1262 6.6796 9.1138 6.6408 9.1087 6.6019 9.0981 6.5878 9.0874 6.5631 9.0798 6.5243 9.0792 6.4854 9.0759 6.4466 9.0711 6.4078 9.0671 6.3919 9.0485 6.3689 9.0397 6.3301 9.0328 6.2913 9.0285 6.2524 9.0224 6.2302 9.0097 6.2136 9.0039 6.1748 8.9951 6.1359 8.9897 6.0971 8.98 6.0615 8.9709 6.0583 8.9704 6.0453 8.9709 6.0194 8.9739 6.0117 8.9709 5.9806 8.9662 5.9417 8.9671 5.9029 8.9699 5.9008 8.9709 5.9029 8.9773 5.9245 9.0097 5.9029 9.0374 5.8959 9.0485 5.8951 9.0874 5.8969 9.1262 5.891 9.165 5.8796 9.2039 5.8786 9.2427 5.8932 9.2816 5.9029 9.301 5.9184 9.3204 5.9184 9.3592 5.9417 9.3981 5.9806 9.4214 6.0194 9.4369 6.0583 9.4602 6.0971 9.4628 6.1165 9.4757 6.1359 9.4951 6.1618 9.4757 6.1748 9.4628 6.2136 9.466 6.2233 9.4757 6.2524 9.499 6.2718 9.4757" fill="none" stroke="#0B1121"/>
<polyline points="8.945 9.2427 8.9709 9.2298 8.9903 9.2039 9.0097 9.165 9.0227 9.1262 9.0485 9.1003 9.0583 9.0874 9.0583 9.0485 9.0874 9.0194 9.1068 9.0097 9.0874 8.9903 9.0825 8.9709 9.0485 8.9662 9.0097 8.9662 9.0006 8.9709 8.9872 9.0097 8.9709 9.0485 8.9647 9.0874 8.9617 9.1262 8.9539 9.165 8.9487 9.2039 8.932 9.233 8.9305 9.2427 8.932 9.2816 8.945 9.2427" fill="none" stroke="#0B1121"/>
<polyline points="9.411 9.2039 9.4097 9.165 9.4175 9.1262 9.4369 9.0874 9.4175 9.0485 9.4369 9.0291 9.4535 9.0097 9.4369 8.9981 9.4122 8.9709 9.3981 8.9684 9.3592 8.9682 9.3204 8.9671 9.2816 8.9695 9.2427 8.9689 9.2136 8.9709 9.2427 8.9942 9.2686 9.0097 9.2816 9.0194 9.3204 9.0291 9.3269 9.0485 9.3515 9.0874 9.3592 9.1068 9.3689 9.1262 9.3592 9.1392 9.3532 9.165 9.3592 9.1845 9.3786 9.2039 9.3981 9.2168 9.411 9.2039" fill="none" stroke="#0B1121"/>
<polyline points="5.411 9.165 5.3981 9.1633 5.3962 9.165 5.3981 9.1694 5.411 9.165" fill="none" stroke="#0B1121"/>
<polyline points="7.4202 9.8641 7.4252 9.8252 7.4297 9.7864 7.4274 9.7476 7.4212 9.7087 7.4175 9.6699 7.4034 9.6311 7.395 9.5922 7.39 9.5534 7.384 9.5146 7.3786 9.4828 7.3761 9.4757 7.3612 9.4369 7.3545 9.3981 7.3495 9.3592 7.3398 9.3364 7.3285 9.3204 7.301 9.2827 7.2982 9.2816 7.2621 9.2596 7.2427 9.2427 7.2233 9.2128 7.2172 9.2039 7.1845 9.1673 7.1615 9.2039 7.1456 9.2225 7.1353 9.2427 7.1125 9.2816 7.1068 9.2882 7.0892 9.3204 7.068 9.3517 7.0615 9.3592 7.0306 9.3981 7.0291 9.3999 6.9938 9.4369 6.9903 9.4403 6.9515 9.4729 6.9466 9.4757 6.9126 9.499 6.8738 9.5097 6.8658 9.5146 6.835 9.5414 6.7961 9.5527 6.7943 9.5534 6.7573 9.5802 6.7184 9.5884 6.7065 9.5922 6.6796 9.6128 6.6408 9.624 6.6075 9.6311 6.6019 9.6375 6.5631 9.6529 6.5243 9.6544 6.4854 9.6628 6.4699 9.6699 6.4854 9.6796 6.5243 9.6878 6.5631 9.7087 6.6019 9.7254 6.6408 9.7087 6.6796 9.7282 6.7184 9.732 6.7573 9.7309 6.7961 9.7476 6.835 9.7864 6.8738 9.7961 6.9126 9.8252 6.9515 9.8252 6.9903 9.8252 7.0291 9.8058 7.055 9.7864 7.068 9.7786 7.1068 9.7864 7.1327 9.8252 7.1456 9.833 7.1845 9.8485 7.2104 9.8641 7.2233 9.8706 7.233 9.8641 7.2621 9.8474 7.301 9.8419 7.3398 9.8641 7.3786 9.8576 7.3916 9.8641 7.4175 9.877 7.4202 9.8641" fill="none" stroke="#0B1121"/>
<polyline points="6.4155 9.6311 6.4078 9.628 6.3922 9.6311 6.4078 9.6388 6.4155 9.6311" fill="none" stroke="#0B1121"/>
<polyline points="7.6565 10.252 7.6505 10.23 7.6117 10.214 7.6311 10.252 7.6505 10.272 7.6565 10.252" fill="none" stroke="#0B1121"/>
</svg>
